<?xml version="1.0" encoding="UTF-8"?>
<svg version="1.1" xmlns="http://www.w3.org/2000/svg" width="392" height="298">
<path d="M0 0 C1.51388306 -0.01244751 1.51388306 -0.01244751 3.05834961 -0.02514648 C4.13995361 -0.00653564 5.22155762 0.0120752 6.3359375 0.03125 C8.04825562 0.05046509 8.04825562 0.05046509 9.79516602 0.07006836 C53.85477568 1.08158743 101.0493105 15.38807554 137.1015625 41.08203125 C139.49637819 42.69336482 139.49637819 42.69336482 141.65234375 42.51171875 C144.6999564 41.06019925 147.54165396 39.31925777 150.3984375 37.53125 C178.44311916 20.45893891 209.11228181 8.45845988 241.54003906 2.90576172 C243.44253912 2.57755264 245.33911252 2.21536238 247.234375 1.84765625 C256.21941839 0.32920486 265.24666662 0.29356324 274.3359375 0.21875 C275.00735779 0.20912231 275.67877808 0.19949463 276.37054443 0.1895752 C278.30939654 0.16574341 280.24850201 0.16648198 282.1875 0.16796875 C283.32268066 0.16498779 284.45786133 0.16200684 285.62744141 0.15893555 C289.0667011 0.57420641 290.94773907 1.4765399 293.7109375 3.53125 C295.21700265 6.54338029 294.83254081 9.64407622 294.80859375 12.9453125 C294.80647133 14.03977188 294.80647133 14.03977188 294.80430603 15.15634155 C294.79870281 17.48968585 294.78614985 19.82293464 294.7734375 22.15625 C294.76842291 23.73697778 294.76385993 25.31770707 294.75976562 26.8984375 C294.74873234 30.77607854 294.73146561 34.65364807 294.7109375 38.53125 C295.57509277 38.58095947 296.43924805 38.63066895 297.32958984 38.68188477 C305.42805649 39.19650121 313.34062261 40.095353 321.3359375 41.46875 C322.38394531 41.63826172 323.43195313 41.80777344 324.51171875 41.98242188 C325.51847656 42.15193359 326.52523438 42.32144531 327.5625 42.49609375 C328.45791504 42.6468335 329.35333008 42.79757324 330.27587891 42.95288086 C332.70244893 43.52923382 334.58361302 44.23546175 336.7109375 45.53125 C338.3241505 48.757676 337.86268623 52.28598433 337.86483765 55.83114624 C337.8692199 56.69982948 337.87360215 57.56851272 337.8781172 58.46351969 C337.89153489 61.39153479 337.89769067 64.31951977 337.90380859 67.24755859 C337.91170709 69.33986041 337.91997588 71.43216085 337.92858887 73.52445984 C337.95483357 80.40952244 337.97011683 87.29459121 337.984375 94.1796875 C337.98973327 96.54646433 337.99511077 98.91324111 338.00050735 101.28001785 C338.02213777 111.1211793 338.04087662 120.96233908 338.05212975 130.8035183 C338.0683831 144.92635338 338.10159285 159.04891395 338.15853059 173.17164552 C338.1971678 183.0918362 338.21675494 193.01195326 338.22205031 202.93221724 C338.22571169 208.86251233 338.23781679 214.7925148 338.27015305 220.72272873 C338.30012491 226.29925471 338.3065844 231.87530934 338.29476929 237.45189857 C338.29454765 239.50141083 338.30292644 241.55094427 338.32042313 243.60038185 C338.34297403 246.39329118 338.33488578 249.18447077 338.31893921 251.97738647 C338.3328213 252.79314286 338.34670338 253.60889924 338.36100614 254.44937551 C338.30567088 258.36816209 338.07727828 260.13926478 335.356287 263.05072975 C331.95348091 264.95517501 330.14380473 264.81184032 326.2734375 264.40625 C324.85950577 264.27849234 323.44542872 264.15233781 322.03125 264.02734375 C321.21430664 263.9485498 320.39736328 263.86975586 319.55566406 263.78857422 C313.59425292 263.24932539 307.62015332 262.87392481 301.6484375 262.46875 C300.40715088 262.37770996 299.16586426 262.28666992 297.88696289 262.19287109 C273.52077393 260.49055594 250.72140852 262.56147757 226.9609375 267.78125 C226.10687317 267.96734833 225.25280884 268.15344666 224.37286377 268.34518433 C208.251754 271.88905732 191.6411693 275.65147473 176.6484375 282.71875 C175.43510742 283.26970337 175.43510742 283.26970337 174.19726562 283.83178711 C169.86449003 285.85260237 165.73271271 288.0624861 161.65234375 290.5546875 C160.8229126 291.0597583 159.99348145 291.5648291 159.13891602 292.08520508 C157.57690427 293.05570991 156.03004188 294.05127028 154.50366211 295.0769043 C148.39011595 298.92515404 142.84674158 299.81307295 135.7109375 298.53125 C131.66792935 296.93694605 128.12416696 294.79139605 124.4609375 292.46875 C122.44197264 291.26290473 120.41982341 290.06237518 118.39453125 288.8671875 C116.93442627 287.99852051 116.93442627 287.99852051 115.44482422 287.11230469 C97.49281901 276.73034489 76.53780611 272.15641015 56.4609375 267.78125 C55.13079117 267.4889299 55.13079117 267.4889299 53.77377319 267.19070435 C39.7992124 264.14320681 26.05463175 261.7777904 11.7109375 261.53125 C10.65229492 261.51280029 9.59365234 261.49435059 8.50292969 261.4753418 C-0.25498984 261.39967278 -8.9303048 261.85583569 -17.6640625 262.46875 C-19.03299253 262.55883538 -20.40197116 262.648185 -21.77099609 262.73681641 C-27.41327559 263.10554332 -33.05070274 263.48846874 -38.6796875 264.02734375 C-39.78691162 264.12511108 -39.78691162 264.12511108 -40.91650391 264.22485352 C-42.74283591 264.39070107 -44.56692186 264.58082166 -46.390625 264.7734375 C-50.31544013 264.44548799 -51.60296079 263.40020903 -54.2890625 260.53125 C-54.78806603 257.49816038 -54.9613377 255.02431986 -54.91725159 251.99084473 C-54.92434597 251.12045264 -54.93144036 250.25006055 -54.93874973 249.35329294 C-54.95637939 246.4310456 -54.93819975 243.5101196 -54.92016602 240.58789062 C-54.92530293 238.49528903 -54.93258248 236.40269175 -54.94184875 234.31010437 C-54.96039984 228.62207531 -54.94740058 222.93451358 -54.92775846 217.24650383 C-54.91140135 211.29995024 -54.92018075 205.35342694 -54.92527771 199.40686035 C-54.92980195 189.41976434 -54.91390826 179.43285543 -54.88598633 169.44580078 C-54.85393306 157.8918151 -54.85394916 146.33816692 -54.8712011 134.78415728 C-54.88705304 123.67931916 -54.88034117 112.57460502 -54.86326408 101.46977234 C-54.85638318 96.73936166 -54.85743671 92.00905006 -54.86480904 87.27864075 C-54.87245804 81.71028179 -54.8603908 76.1423079 -54.83296013 70.57401466 C-54.82606069 68.52775529 -54.82599493 66.48146005 -54.83317566 64.43520164 C-54.84183436 61.64691998 -54.82597524 58.85983649 -54.8037262 56.07165527 C-54.81196696 55.25726313 -54.82020773 54.44287099 -54.82869822 53.6038003 C-54.77621152 50.0526732 -54.59941371 47.95193568 -52.46192837 45.05454254 C-49.43458705 42.93221805 -46.79190781 42.58613457 -43.14453125 42.046875 C-42.45651932 41.94155457 -41.76850739 41.83623413 -41.05964661 41.72772217 C-39.60755995 41.50851057 -38.15426458 41.29717807 -36.69995117 41.09326172 C-34.49179671 40.78338784 -32.28809128 40.45063199 -30.08398438 40.11328125 C-23.7788453 39.17453759 -17.68163934 38.40551129 -11.2890625 38.53125 C-11.3204834 37.52223633 -11.3519043 36.51322266 -11.38427734 35.47363281 C-11.49300902 31.72428411 -11.56180415 27.97507408 -11.61865234 24.22460938 C-11.64879712 22.6026261 -11.68972191 20.98080548 -11.74169922 19.359375 C-11.81462863 17.02563389 -11.84853739 14.69404889 -11.875 12.359375 C-11.90596771 11.63631165 -11.93693542 10.91324829 -11.96884155 10.16827393 C-11.97021484 8.10644531 -11.97021484 8.10644531 -11.2890625 4.53125 C-7.69094917 1.26554989 -4.82346969 0.02474027 0 0 Z M10.7109375 24.53125 C10.7109375 80.96125 10.7109375 137.39125 10.7109375 195.53125 C19.6209375 196.52125 28.5309375 197.51125 37.7109375 198.53125 C71.37872482 205.71644851 101.34324013 219.90976103 130.7109375 237.53125 C131.06167637 215.01775044 131.32601289 192.50470256 131.48812008 169.98902321 C131.56539856 159.53390691 131.67070547 149.08049007 131.8425293 138.62646484 C131.99226005 129.51225462 132.08886021 120.39927511 132.12226492 111.28386915 C132.14178806 106.4585761 132.18749188 101.63680297 132.29688835 96.81264114 C132.39915407 92.26585133 132.43003439 87.72400865 132.40755272 83.17617798 C132.41166094 81.51271977 132.44126558 79.84908683 132.49901962 78.18662643 C132.94658883 69.46230857 132.94658883 69.46230857 129.24405599 61.88530493 C125.12606283 58.39506918 120.51311486 55.93923406 115.7109375 53.53125 C113.90934175 52.51284986 112.1092714 51.49173157 110.3125 50.46484375 C108.66121037 49.61789882 107.00217964 48.7858854 105.3359375 47.96875 C104.41659424 47.51604736 103.49725098 47.06334473 102.55004883 46.59692383 C74.12861998 32.96294876 42.33674898 24.53125 10.7109375 24.53125 Z M246.8359375 26.15625 C245.66264893 26.33446289 244.48936035 26.51267578 243.28051758 26.69628906 C220.33202244 30.37053508 198.03486385 37.66689947 177.2109375 47.96875 C176.36402344 48.38664795 175.51710937 48.8045459 174.64453125 49.23510742 C172.98203683 50.08514442 171.33556481 50.96740855 169.70851326 51.88346195 C167.56910844 53.05950752 165.3850128 54.15570613 163.17635918 55.19589138 C157.77824799 57.93157023 153.52251817 60.23229299 151.44067764 66.12950325 C150.80777666 70.58973477 150.97635046 75.03613569 151.12158203 79.52563477 C151.12553588 81.24122288 151.12330493 82.95683466 151.11538696 84.67240906 C151.1113834 89.31018996 151.19343695 93.94286087 151.29142237 98.57945752 C151.37918482 103.43185033 151.38718303 108.28437192 151.40377808 113.13743591 C151.44722329 122.31808032 151.56200614 131.49637947 151.70267093 140.67599291 C151.85937726 151.13032571 151.93618415 161.58477299 152.00640702 172.03998864 C152.15258559 193.53838279 152.39869196 215.03466844 152.7109375 236.53125 C154.44586058 235.58635943 156.18060799 234.64114631 157.9152832 233.69580078 C158.88133987 233.16947052 159.84739655 232.64314026 160.84272766 232.1008606 C165.62895027 229.48162904 170.38863236 226.81488086 175.14648438 224.14453125 C175.88318359 223.73332031 176.61988281 223.32210937 177.37890625 222.8984375 C178.02110107 222.53862793 178.6632959 222.17881836 179.32495117 221.80810547 C182.74873039 219.97587736 186.23768842 218.26787454 189.7109375 216.53125 C189.7109375 185.84125 189.7109375 155.15125 189.7109375 123.53125 C187.0709375 125.51125 184.4309375 127.49125 181.7109375 129.53125 C177.92432207 132.05566028 176.20813461 131.61114716 171.87109375 131.01171875 C169.17502613 130.41205091 167.58763377 129.56433763 165.7109375 127.53125 C164.50450184 123.91194302 164.38825191 121.33893995 164.7109375 117.53125 C167.95703126 111.69748091 172.66685864 107.18418279 177.31640625 102.44921875 C178.15504715 101.59443436 178.99368805 100.73964996 179.85774231 99.85896301 C181.62912948 98.05999737 183.4035866 96.2640501 185.1809082 94.47094727 C186.99267261 92.63606988 188.79544943 90.79227447 190.58911133 88.93969727 C193.18716835 86.25636433 195.81066603 83.60047101 198.44140625 80.94921875 C199.23548386 80.12012497 200.02956146 79.29103119 200.84770203 78.43681335 C205.00023324 74.3159511 208.46652932 71.13852818 214.53520203 71.02600098 C218.9872424 72.05985324 221.6665872 75.30725372 224.7109375 78.53125 C226.10207879 79.87921 227.49585748 81.22445276 228.89208984 82.56713867 C230.36313254 84.02503131 231.83129084 85.48583888 233.296875 86.94921875 C234.47136703 88.11871819 234.47136703 88.11871819 235.66958618 89.31184387 C237.30951163 90.94674151 238.9481166 92.58296467 240.58544922 94.22045898 C243.09452822 96.72733317 245.61152268 99.22607803 248.12890625 101.72460938 C249.72705112 103.31982313 251.32472429 104.91550962 252.921875 106.51171875 C253.67391205 107.25657028 254.4259491 108.00142181 255.20077515 108.7688446 C255.89554962 109.46669571 256.5903241 110.16454681 257.30615234 110.88354492 C257.91711761 111.49308517 258.52808289 112.10262543 259.15756226 112.7306366 C261.58438875 115.54372141 262.61550354 117.78368394 263.0859375 121.46875 C262.61165478 125.34205888 261.48896185 126.82830739 258.7109375 129.53125 C254.3131878 132.21876371 250.6191716 131.70336561 245.7109375 130.53125 C243.0709375 128.55125 240.4309375 126.57125 237.7109375 124.53125 C237.7109375 149.28125 237.7109375 174.03125 237.7109375 199.53125 C243.9809375 198.54125 250.2509375 197.55125 256.7109375 196.53125 C261.6609375 196.20125 266.6109375 195.87125 271.7109375 195.53125 C271.7109375 139.10125 271.7109375 82.67125 271.7109375 24.53125 C262.92886632 24.53125 255.36278056 24.85680277 246.8359375 26.15625 Z M-32.2890625 63.53125 C-32.2890625 122.27125 -32.2890625 181.01125 -32.2890625 241.53125 C-27.6690625 241.20125 -23.0490625 240.87125 -18.2890625 240.53125 C-14.91144155 240.42722136 -11.55268451 240.3464538 -8.17578125 240.328125 C-7.28664032 240.32106537 -6.39749939 240.31400574 -5.48141479 240.30673218 C13.44528211 240.19049334 32.02490121 240.18572846 50.7109375 243.53125 C51.81759766 243.71929199 52.92425781 243.90733398 54.06445312 244.10107422 C82.14603159 248.97387159 114.1379769 256.95820494 137.73828125 273.6328125 C140.53857818 274.90819526 141.79504218 274.49900747 144.7109375 273.53125 C147.20957884 272.24459331 149.64371138 270.91631549 152.0859375 269.53125 C176.59753929 256.15785794 204.30168696 248.24629633 231.7109375 243.53125 C232.66081543 243.36608887 233.61069336 243.20092773 234.58935547 243.03076172 C249.85352719 240.51748842 265.03074611 240.27054834 280.4609375 240.28125 C281.40964722 240.28184418 282.35835693 240.28243835 283.33581543 240.28305054 C286.1016058 240.28966654 288.86710344 240.30624499 291.6328125 240.328125 C292.44049072 240.3325209 293.24816895 240.33691681 294.08032227 240.34144592 C301.34730505 240.42772803 308.41764722 241.01030069 315.7109375 241.53125 C315.7109375 182.79125 315.7109375 124.05125 315.7109375 63.53125 C307.51214531 61.7809756 307.51214531 61.7809756 299.5859375 61.40625 C298.65523438 61.42429688 297.72453125 61.44234375 296.765625 61.4609375 C296.08757812 61.48414063 295.40953125 61.50734375 294.7109375 61.53125 C294.70735497 62.66073452 294.70735497 62.66073452 294.70370007 63.81303692 C294.6445712 82.13260059 294.5690347 100.45202928 294.47522259 118.77144909 C294.43025169 127.63057961 294.39084002 136.48966982 294.36450195 145.34887695 C294.34153233 153.07031518 294.30814596 160.79162595 294.26223594 168.51296312 C294.23828967 172.60159436 294.21957013 176.69009928 294.21332359 180.77879906 C294.20727904 184.62758015 294.18730226 188.47603795 294.15666199 192.3246994 C294.14787162 193.73678913 294.14416126 195.14892108 294.14592934 196.56103706 C294.14758233 198.49049151 294.12911455 200.41993181 294.10966492 202.34928894 C294.10505595 203.42870852 294.10044699 204.50812811 294.09569836 205.62025738 C293.65601435 208.94678314 292.67117229 210.83235365 290.7109375 213.53125 C287.85541142 215.47778342 285.58000374 215.77128551 282.16796875 215.76953125 C281.27239258 215.78177734 280.37681641 215.79402344 279.45410156 215.80664062 C278.48698242 215.81888672 277.51986328 215.83113281 276.5234375 215.84375 C246.74909751 216.76800889 218.31142448 226.61458891 191.7109375 239.53125 C190.89608887 239.91893555 190.08124023 240.30662109 189.24169922 240.70605469 C172.33984643 248.75643981 156.38795429 258.31961521 140.7109375 268.53125 C139.87175781 267.94859375 139.03257812 267.3659375 138.16796875 266.765625 C98.76005398 239.74960847 51.34984844 216.61765139 2.70092773 215.99682617 C-2.08802946 215.88500561 -5.41736397 215.68425 -9.2890625 212.53125 C-10.6464366 209.8165018 -10.42939527 207.67467978 -10.44728088 204.63412476 C-10.4570697 203.37766647 -10.46685852 202.12120819 -10.47694397 200.82667542 C-10.48284854 199.42660561 -10.48865896 198.0265354 -10.49438477 196.62646484 C-10.50396069 195.15820539 -10.5139706 193.68994871 -10.52438354 192.22169495 C-10.55146963 188.2281568 -10.5724591 184.23460679 -10.59238553 180.24102736 C-10.61422228 176.07030025 -10.64162225 171.89960986 -10.66844177 167.72891235 C-10.71839997 159.82769672 -10.76332718 151.92646075 -10.80646414 144.02520525 C-10.85580982 135.03135174 -10.91073783 126.03753505 -10.96614373 117.04371715 C-11.08001177 98.53959562 -11.18684029 80.03543934 -11.2890625 61.53125 C-12.91364565 61.4756559 -14.53883391 61.43776413 -16.1640625 61.40625 C-17.06898437 61.38304687 -17.97390625 61.35984375 -18.90625 61.3359375 C-23.41929289 61.5965058 -27.85628989 62.64469548 -32.2890625 63.53125 Z " fill="#264BCE" transform="translate(54.2890625,-0.53125)"/>
<path d="M0 0 C0.33 0.33 0.66 0.66 1 1 C0.92524213 2.99683198 0.79744594 4.99170764 0.6484375 6.984375 C-0.46451373 20.42066517 -0.46451373 20.42066517 3.859375 32.58056641 C8.33630215 36.60961305 13.43284564 39.40358602 18.93115234 41.81274414 C21.37784042 43.21683243 22.55699384 44.58908134 24 47 C23.75925978 50.37036311 23.41201979 51.58798021 21 54 C16.52394262 54.93163636 13.92886378 53.57618998 10.21484375 51.26171875 C8.44645703 50.08411891 6.68755096 48.89218029 4.9375 47.6875 C3.17611577 46.50340849 1.41440704 45.31979951 -0.34765625 44.13671875 C-1.12117432 43.60780029 -1.89469238 43.07888184 -2.69165039 42.53393555 C-4.9928335 40.90590793 -4.9928335 40.90590793 -7.75805664 39.81005859 C-10 38 -10 38 -10.58349609 34.38647461 C-10.58946239 32.89164217 -10.5676747 31.39653339 -10.5234375 29.90234375 C-10.51873444 29.11227432 -10.51403137 28.3222049 -10.50918579 27.50819397 C-10.4878298 24.98374382 -10.4312092 22.46138934 -10.375 19.9375 C-10.35849481 18.2337437 -10.34414624 16.52996505 -10.33203125 14.82617188 C-10.19639063 2.39278126 -10.19639063 2.39278126 -9 0 C-5.50340123 -1.16553292 -3.55568859 -0.77297578 0 0 Z " fill="#2649CB" transform="translate(130,91)"/>
<path d="M0 0 C2 2 2 2 2.375 5.9375 C2.28635216 8.80551846 2.21085143 9.72167611 0.4375 12.0625 C-3.0211441 13.39274773 -5.4440159 12.85607025 -9 12 C-11 10 -11 10 -11.375 6.0625 C-11.28635216 3.19448154 -11.21085143 2.27832389 -9.4375 -0.0625 C-5.9788559 -1.39274773 -3.5559841 -0.85607025 0 0 Z " fill="#2152DA" transform="translate(130,164)"/>
<path d="M0 0 C2 2 2 2 2.375 5.9375 C2.28635216 8.80551846 2.21085143 9.72167611 0.4375 12.0625 C-3.0211441 13.39274773 -5.4440159 12.85607025 -9 12 C-11 10 -11 10 -11.375 6.0625 C-11.28635216 3.19448154 -11.21085143 2.27832389 -9.4375 -0.0625 C-5.9788559 -1.39274773 -3.5559841 -0.85607025 0 0 Z " fill="#2152DA" transform="translate(154,159)"/>
<path d="M0 0 C2 2 2 2 2.375 5.9375 C2.28635216 8.80551846 2.21085143 9.72167611 0.4375 12.0625 C-3.0211441 13.39274773 -5.4440159 12.85607025 -9 12 C-11 10 -11 10 -11.375 6.0625 C-11.28635216 3.19448154 -11.21085143 2.27832389 -9.4375 -0.0625 C-5.9788559 -1.39274773 -3.5559841 -0.85607025 0 0 Z " fill="#2152DA" transform="translate(107,159)"/>
<path d="M0 0 C2 2 2 2 2.375 5.9375 C2.28635216 8.80551846 2.21085143 9.72167611 0.4375 12.0625 C-3.0211441 13.39274773 -5.4440159 12.85607025 -9 12 C-11 10 -11 10 -11.375 6.0625 C-11.28635216 3.19448154 -11.21085143 2.27832389 -9.4375 -0.0625 C-5.9788559 -1.39274773 -3.5559841 -0.85607025 0 0 Z " fill="#2056DF" transform="translate(170,143)"/>
<path d="M0 0 C2 2 2 2 2.375 5.9375 C2.28635216 8.80551846 2.21085143 9.72167611 0.4375 12.0625 C-3.0211441 13.39274773 -5.4440159 12.85607025 -9 12 C-11 10 -11 10 -11.375 6.0625 C-11.28635216 3.19448154 -11.21085143 2.27832389 -9.4375 -0.0625 C-5.9788559 -1.39274773 -3.5559841 -0.85607025 0 0 Z " fill="#2056DF" transform="translate(91,143)"/>
<path d="M0 0 C2 2 2 2 2.375 5.9375 C2.28635216 8.80551846 2.21085143 9.72167611 0.4375 12.0625 C-3.0211441 13.39274773 -5.4440159 12.85607025 -9 12 C-11 10 -11 10 -11.375 6.0625 C-11.28635216 3.19448154 -11.21085143 2.27832389 -9.4375 -0.0625 C-5.9788559 -1.39274773 -3.5559841 -0.85607025 0 0 Z " fill="#2056DF" transform="translate(175,119)"/>
<path d="M0 0 C2 2 2 2 2.375 5.9375 C2.28635216 8.80551846 2.21085143 9.72167611 0.4375 12.0625 C-3.0211441 13.39274773 -5.4440159 12.85607025 -9 12 C-11 10 -11 10 -11.375 6.0625 C-11.28635216 3.19448154 -11.21085143 2.27832389 -9.4375 -0.0625 C-5.9788559 -1.39274773 -3.5559841 -0.85607025 0 0 Z " fill="#2056DF" transform="translate(86,119)"/>
<path d="M0 0 C2 2 2 2 2.375 5.9375 C2.28635216 8.80551846 2.21085143 9.72167611 0.4375 12.0625 C-3.0211441 13.39274773 -5.4440159 12.85607025 -9 12 C-11 10 -11 10 -11.375 6.0625 C-11.28635216 3.19448154 -11.21085143 2.27832389 -9.4375 -0.0625 C-5.9788559 -1.39274773 -3.5559841 -0.85607025 0 0 Z " fill="#2056DF" transform="translate(170,96)"/>
<path d="M0 0 C2 2 2 2 2.375 5.9375 C2.28635216 8.80551846 2.21085143 9.72167611 0.4375 12.0625 C-3.0211441 13.39274773 -5.4440159 12.85607025 -9 12 C-11 10 -11 10 -11.375 6.0625 C-11.28635216 3.19448154 -11.21085143 2.27832389 -9.4375 -0.0625 C-5.9788559 -1.39274773 -3.5559841 -0.85607025 0 0 Z " fill="#2056DF" transform="translate(91,96)"/>
<path d="M0 0 C2 2 2 2 2.375 5.9375 C2.28635216 8.80551846 2.21085143 9.72167611 0.4375 12.0625 C-3.0211441 13.39274773 -5.4440159 12.85607025 -9 12 C-11 10 -11 10 -11.375 6.0625 C-11.28635216 3.19448154 -11.21085143 2.27832389 -9.4375 -0.0625 C-5.9788559 -1.39274773 -3.5559841 -0.85607025 0 0 Z " fill="#2152DA" transform="translate(154,79)"/>
<path d="M0 0 C2 2 2 2 2.375 5.9375 C2.28635216 8.80551846 2.21085143 9.72167611 0.4375 12.0625 C-3.0211441 13.39274773 -5.4440159 12.85607025 -9 12 C-11 10 -11 10 -11.375 6.0625 C-11.28635216 3.19448154 -11.21085143 2.27832389 -9.4375 -0.0625 C-5.9788559 -1.39274773 -3.5559841 -0.85607025 0 0 Z " fill="#2152DA" transform="translate(107,79)"/>
<path d="M0 0 C2 2 2 2 2.375 5.9375 C2.28635216 8.80551846 2.21085143 9.72167611 0.4375 12.0625 C-3.0211441 13.39274773 -5.4440159 12.85607025 -9 12 C-11 10 -11 10 -11.375 6.0625 C-11.28635216 3.19448154 -11.21085143 2.27832389 -9.4375 -0.0625 C-5.9788559 -1.39274773 -3.5559841 -0.85607025 0 0 Z " fill="#2056DF" transform="translate(130,75)"/>
<path d="M0 0 C4.29 0 8.58 0 13 0 C12 4 12 4 9 6 C2.54716981 5.54716981 2.54716981 5.54716981 0 3 C0 2.01 0 1.02 0 0 Z " fill="#2643C5" transform="translate(159,150)"/>
<path d="M0 0 C4.29 0 8.58 0 13 0 C12 4 12 4 9 6 C2.54716981 5.54716981 2.54716981 5.54716981 0 3 C0 2.01 0 1.02 0 0 Z " fill="#2643C5" transform="translate(80,150)"/>
<path d="M0 0 C4.29 0 8.58 0 13 0 C12 4 12 4 9 6 C2.54716981 5.54716981 2.54716981 5.54716981 0 3 C0 2.01 0 1.02 0 0 Z " fill="#2643C5" transform="translate(164,126)"/>
<path d="M0 0 C4.29 0 8.58 0 13 0 C12 4 12 4 9 6 C2.54716981 5.54716981 2.54716981 5.54716981 0 3 C0 2.01 0 1.02 0 0 Z " fill="#2643C5" transform="translate(75,126)"/>
<path d="M0 0 C4.29 0 8.58 0 13 0 C12 4 12 4 9 6 C2.54716981 5.54716981 2.54716981 5.54716981 0 3 C0 2.01 0 1.02 0 0 Z " fill="#2643C5" transform="translate(159,103)"/>
<path d="M0 0 C4.29 0 8.58 0 13 0 C12 4 12 4 9 6 C2.54716981 5.54716981 2.54716981 5.54716981 0 3 C0 2.01 0 1.02 0 0 Z " fill="#2643C5" transform="translate(80,103)"/>
<path d="M0 0 C4.29 0 8.58 0 13 0 C12 4 12 4 9 6 C2.54716981 5.54716981 2.54716981 5.54716981 0 3 C0 2.01 0 1.02 0 0 Z " fill="#2543C5" transform="translate(119,82)"/>
<path d="M0 0 C4.29 0 8.58 0 13 0 C11.68 1.32 10.36 2.64 9 4 C5.375 3.9375 5.375 3.9375 2 3 C1.34 2.01 0.68 1.02 0 0 Z " fill="#2E39B3" transform="translate(119,173)"/>
<path d="M0 0 C4.29 0 8.58 0 13 0 C11.68 1.32 10.36 2.64 9 4 C5.375 3.9375 5.375 3.9375 2 3 C1.34 2.01 0.68 1.02 0 0 Z " fill="#2E39B3" transform="translate(143,168)"/>
<path d="M0 0 C4.29 0 8.58 0 13 0 C11.68 1.32 10.36 2.64 9 4 C5.375 3.9375 5.375 3.9375 2 3 C1.34 2.01 0.68 1.02 0 0 Z " fill="#2E39B3" transform="translate(96,168)"/>
<path d="M0 0 C4.29 0 8.58 0 13 0 C11.68 1.32 10.36 2.64 9 4 C5.375 3.9375 5.375 3.9375 2 3 C1.34 2.01 0.68 1.02 0 0 Z " fill="#2F39B3" transform="translate(143,88)"/>
<path d="M0 0 C4.29 0 8.58 0 13 0 C11.68 1.32 10.36 2.64 9 4 C5.375 3.9375 5.375 3.9375 2 3 C1.34 2.01 0.68 1.02 0 0 Z " fill="#2F39B3" transform="translate(96,88)"/>
<path d="M0 0 C3.63 0 7.26 0 11 0 C9.515 1.485 9.515 1.485 8 3 C4.375 2.8125 4.375 2.8125 1 2 C0.67 1.34 0.34 0.68 0 0 Z " fill="#3136AE" transform="translate(160,153)"/>
<path d="M0 0 C3.63 0 7.26 0 11 0 C9.515 1.485 9.515 1.485 8 3 C4.375 2.8125 4.375 2.8125 1 2 C0.67 1.34 0.34 0.68 0 0 Z " fill="#3136AE" transform="translate(81,153)"/>
<path d="M0 0 C3.63 0 7.26 0 11 0 C9.515 1.485 9.515 1.485 8 3 C4.375 2.8125 4.375 2.8125 1 2 C0.67 1.34 0.34 0.68 0 0 Z " fill="#3136AE" transform="translate(165,129)"/>
<path d="M0 0 C3.63 0 7.26 0 11 0 C9.515 1.485 9.515 1.485 8 3 C4.375 2.8125 4.375 2.8125 1 2 C0.67 1.34 0.34 0.68 0 0 Z " fill="#3136AE" transform="translate(76,129)"/>
<path d="M0 0 C3.63 0 7.26 0 11 0 C9.515 1.485 9.515 1.485 8 3 C4.375 2.8125 4.375 2.8125 1 2 C0.67 1.34 0.34 0.68 0 0 Z " fill="#3136AE" transform="translate(160,106)"/>
<path d="M0 0 C3.63 0 7.26 0 11 0 C9.515 1.485 9.515 1.485 8 3 C4.375 2.8125 4.375 2.8125 1 2 C0.67 1.34 0.34 0.68 0 0 Z " fill="#3136AE" transform="translate(81,106)"/>
<path d="M0 0 C3.63 0 7.26 0 11 0 C9.515 1.485 9.515 1.485 8 3 C4.375 2.8125 4.375 2.8125 1 2 C0.67 1.34 0.34 0.68 0 0 Z " fill="#3136AE" transform="translate(120,85)"/>
</svg>
